<svg xmlns="http://www.w3.org/2000/svg" viewBox="0 0 100 90">
  <path d="M20 90 Q 10 50, 30 35 Q 40 25, 60 25 Q 80 25, 90 50 Q 100 90, 80 90 Z" fill="#D7CCC8"/>
  <path d="M25 40 L 20 15 L 45 30" fill="#D7CCC8"/>
  <path d="M75 40 L 80 15 L 55 30" fill="#D7CCC8"/>
  <path d="M28 35 L 25 20 L 40 30" fill="#FFCCBC" opacity="0.6"/>
  <path d="M72 35 L 75 20 L 60 30" fill="#FFCCBC" opacity="0.6"/>
  <path d="M36 55 Q 40 52 44 55" fill="none" stroke="#3E2723" stroke-width="2" stroke-linecap="round"/>
  <path d="M76 55 Q 80 52 84 55" fill="none" stroke="#3E2723" stroke-width="2" stroke-linecap="round"/>
  <path d="M55 60 L 60 65 L 65 60" fill="none" stroke="#3E2723" stroke-width="2" stroke-linecap="round" stroke-linejoin="round"/>
  <circle cx="60" cy="58" r="2" fill="#FFAB91"/>
  <path d="M30 90 Q 30 80, 40 80 Q 50 80, 50 90" fill="#FFFFFF" opacity="0.85"/>
  <path d="M70 90 Q 70 80, 80 80 Q 90 80, 90 90" fill="#FFFFFF" opacity="0.85"/>
</svg>