<svg xmlns="http://www.w3.org/2000/svg" viewBox="0 0 100 90">
  <path d="M20 90 Q 10 50, 30 35 Q 40 25, 60 25 Q 80 25, 90 50 Q 100 90, 80 90 Z" fill="#CFD8DC"/>
  <path d="M25 40 L 20 15 L 45 30" fill="#CFD8DC"/>
  <path d="M75 40 L 80 15 L 55 30" fill="#CFD8DC"/>
  <path d="M28 35 L 25 20 L 40 30" fill="#FFCCBC" opacity="0.55"/>
  <path d="M72 35 L 75 20 L 60 30" fill="#FFCCBC" opacity="0.55"/>
  <circle cx="40" cy="55" r="4" fill="#3E2723"/>
  <circle cx="80" cy="55" r="4" fill="#3E2723"/>
  <path d="M53 62 Q 60 70 67 62" fill="none" stroke="#3E2723" stroke-width="2" stroke-linecap="round"/>
  <circle cx="60" cy="58" r="2" fill="#FFAB91"/>
  <path d="M30 90 Q 30 80, 40 80 Q 50 80, 50 90" fill="#FFFFFF" opacity="0.85"/>
  <path d="M70 90 Q 70 80, 80 80 Q 90 80, 90 90" fill="#FFFFFF" opacity="0.85"/>
</svg>